<svg width="18" height="20" viewBox="0 0 18 20" fill="none" xmlns="http://www.w3.org/2000/svg">
<g id="Group">
<path id="Vector" d="M15.4167 2.66665H14.5V0.833313H12.6667V2.66665H5.33333V0.833313H3.5V2.66665H2.58333C1.56583 2.66665 0.759167 3.49165 0.759167 4.49998L0.75 17.3333C0.75 18.3416 1.56583 19.1666 2.58333 19.1666H15.4167C16.425 19.1666 17.25 18.3416 17.25 17.3333V4.49998C17.25 3.49165 16.425 2.66665 15.4167 2.66665ZM15.4167 17.3333H2.58333V8.16665H15.4167V17.3333ZM15.4167 6.33331H2.58333V4.49998H15.4167V6.33331ZM6.25 11.8333H4.41667V9.99998H6.25V11.8333ZM9.91667 11.8333H8.08333V9.99998H9.91667V11.8333ZM13.5833 11.8333H11.75V9.99998H13.5833V11.8333ZM6.25 15.5H4.41667V13.6666H6.25V15.5ZM9.91667 15.5H8.08333V13.6666H9.91667V15.5ZM13.5833 15.5H11.75V13.6666H13.5833V15.5Z" fill="#828282"/>
</g>
</svg>
