<svg width="112" height="19" viewBox="0 0 112 19" fill="none" xmlns="http://www.w3.org/2000/svg">
<path d="M7.32 18.216C5.224 18.216 3.56 17.888 2.328 17.232C1.112 16.56 0.504 15.656 0.504 14.52C0.504 12.76 1.616 11.88 3.84 11.88C3.824 12.008 3.816 12.2 3.816 12.456C3.816 13.432 4.136 14.176 4.776 14.688C5.416 15.184 6.344 15.432 7.56 15.432C8.696 15.432 9.6 15.216 10.272 14.784C10.944 14.336 11.28 13.744 11.28 13.008C11.28 12.688 11.176 12.416 10.968 12.192C10.76 11.952 10.4 11.736 9.888 11.544C9.392 11.336 8.688 11.12 7.776 10.896C5.872 10.432 4.472 9.84 3.576 9.12C2.696 8.384 2.256 7.464 2.256 6.36C2.256 5.272 2.544 4.32 3.12 3.504C3.712 2.688 4.552 2.064 5.64 1.632C6.744 1.2 8.04 0.983999 9.528 0.983999C10.712 0.983999 11.768 1.128 12.696 1.416C13.624 1.704 14.344 2.112 14.856 2.64C15.384 3.152 15.648 3.736 15.648 4.392C15.648 5.96 14.576 6.784 12.432 6.864C12.448 6.736 12.456 6.544 12.456 6.288C12.456 5.408 12.2 4.768 11.688 4.368C11.192 3.968 10.392 3.768 9.288 3.768C8.184 3.768 7.32 3.968 6.696 4.368C6.072 4.752 5.76 5.296 5.76 6C5.76 6.464 5.992 6.848 6.456 7.152C6.92 7.44 7.752 7.72 8.952 7.992C10.952 8.456 12.424 9.064 13.368 9.816C14.312 10.568 14.784 11.512 14.784 12.648C14.784 13.784 14.48 14.776 13.872 15.624C13.28 16.456 12.416 17.096 11.28 17.544C10.16 17.992 8.84 18.216 7.32 18.216ZM20.2644 18.216C19.4164 18.216 18.7364 18.056 18.2244 17.736C17.7124 17.4 17.4324 16.944 17.3844 16.368L16.5204 6.072C16.6644 5.992 16.8884 5.928 17.1924 5.88C17.4964 5.816 17.7764 5.784 18.0324 5.784C18.5444 5.784 18.9604 5.904 19.2804 6.144C19.6164 6.368 19.7924 6.664 19.8084 7.032L19.9524 12.984L19.3764 14.424L19.5204 14.472L22.8804 6.864C23.0244 6.528 23.2484 6.264 23.5524 6.072C23.8724 5.88 24.2404 5.784 24.6564 5.784C25.0724 5.784 25.4084 5.88 25.6644 6.072C25.9364 6.264 26.0804 6.528 26.0964 6.864L26.5284 13.176L25.8804 14.688L26.0244 14.736L29.0724 7.032C29.2164 6.664 29.4884 6.368 29.8884 6.144C30.3044 5.904 30.7684 5.784 31.2804 5.784C31.5524 5.784 31.8244 5.816 32.0964 5.88C32.3684 5.928 32.5684 5.992 32.6964 6.072L28.2084 16.368C27.9524 16.928 27.4964 17.376 26.8404 17.712C26.2004 18.048 25.4644 18.216 24.6324 18.216L23.9844 8.808L23.8404 8.856L23.9124 9.96L20.2644 18.216ZM36.5295 18.216C35.6335 18.216 34.8175 18.048 34.0815 17.712C33.3615 17.36 32.7935 16.888 32.3775 16.296C31.9775 15.704 31.7775 15.048 31.7775 14.328C31.7775 14.04 31.7935 13.824 31.8255 13.68L32.3775 10.608C32.5375 9.664 32.9135 8.832 33.5055 8.112C34.1135 7.376 34.8655 6.808 35.7615 6.408C36.6735 5.992 37.6655 5.784 38.7375 5.784C39.6335 5.784 40.4175 5.952 41.0895 6.288C41.7775 6.608 42.3055 7.064 42.6735 7.656C43.0575 8.232 43.2495 8.888 43.2495 9.624C43.2495 9.88 43.2255 10.152 43.1775 10.44L42.9375 11.736C42.8575 12.136 42.6495 12.464 42.3135 12.72C41.9935 12.976 41.6095 13.104 41.1615 13.104H35.1135L35.0655 13.44C35.0495 13.536 35.0415 13.68 35.0415 13.872C35.0415 14.432 35.2095 14.864 35.5455 15.168C35.8815 15.472 36.3695 15.624 37.0095 15.624C37.6975 15.624 38.2575 15.472 38.6895 15.168C39.1375 14.864 39.4015 14.44 39.4815 13.896C39.8335 13.864 40.0655 13.848 40.1775 13.848C41.3935 13.848 42.0015 14.272 42.0015 15.12C42.0015 15.664 41.7535 16.176 41.2575 16.656C40.7615 17.136 40.0895 17.52 39.2415 17.808C38.4095 18.08 37.5055 18.216 36.5295 18.216ZM40.1295 10.776L40.2015 10.44C40.2495 10.248 40.2735 10.072 40.2735 9.912C40.2735 9.416 40.0975 9.032 39.7455 8.76C39.4095 8.488 38.9135 8.352 38.2575 8.352C37.5855 8.352 37.0015 8.544 36.5055 8.928C36.0255 9.296 35.7215 9.8 35.5935 10.44L35.5215 10.776H40.1295ZM49.3498 18.216C48.4538 18.216 47.6378 18.048 46.9018 17.712C46.1818 17.36 45.6138 16.888 45.1978 16.296C44.7978 15.704 44.5978 15.048 44.5978 14.328C44.5978 14.04 44.6138 13.824 44.6458 13.68L45.1978 10.608C45.3578 9.664 45.7338 8.832 46.3258 8.112C46.9338 7.376 47.6858 6.808 48.5818 6.408C49.4938 5.992 50.4858 5.784 51.5578 5.784C52.4538 5.784 53.2378 5.952 53.9098 6.288C54.5978 6.608 55.1258 7.064 55.4938 7.656C55.8778 8.232 56.0698 8.888 56.0698 9.624C56.0698 9.88 56.0458 10.152 55.9978 10.44L55.7578 11.736C55.6778 12.136 55.4698 12.464 55.1338 12.72C54.8138 12.976 54.4298 13.104 53.9818 13.104H47.9338L47.8858 13.44C47.8698 13.536 47.8618 13.68 47.8618 13.872C47.8618 14.432 48.0298 14.864 48.3658 15.168C48.7018 15.472 49.1898 15.624 49.8298 15.624C50.5178 15.624 51.0778 15.472 51.5098 15.168C51.9578 14.864 52.2218 14.44 52.3018 13.896C52.6538 13.864 52.8858 13.848 52.9978 13.848C54.2138 13.848 54.8218 14.272 54.8218 15.12C54.8218 15.664 54.5738 16.176 54.0778 16.656C53.5818 17.136 52.9098 17.52 52.0618 17.808C51.2298 18.08 50.3258 18.216 49.3498 18.216ZM52.9498 10.776L53.0218 10.44C53.0698 10.248 53.0938 10.072 53.0938 9.912C53.0938 9.416 52.9178 9.032 52.5658 8.76C52.2298 8.488 51.7338 8.352 51.0778 8.352C50.4058 8.352 49.8218 8.544 49.3258 8.928C48.8458 9.296 48.5418 9.8 48.4138 10.44L48.3418 10.776H52.9498ZM61.9504 18.216C60.8944 18.216 60.0784 17.944 59.5024 17.4C58.9264 16.856 58.6384 16.08 58.6384 15.072C58.6384 14.704 58.6704 14.352 58.7344 14.016L59.7184 8.424H57.1744C57.3024 7.656 57.5504 7.064 57.9184 6.648C58.2864 6.216 58.7344 6 59.2624 6H60.1984L60.5344 4.104C60.6624 3.432 60.9984 2.944 61.5424 2.64C62.1024 2.336 62.9424 2.184 64.0624 2.184L63.3904 6H66.5824C66.4384 6.848 66.1664 7.464 65.7664 7.848C65.3824 8.232 64.8224 8.424 64.0864 8.424H63.0064L62.0464 13.896C62.0144 14.152 61.9984 14.328 61.9984 14.424C61.9984 14.776 62.0864 15.024 62.2624 15.168C62.4544 15.312 62.7584 15.384 63.1744 15.384C63.7344 15.384 64.3424 15.224 64.9984 14.904C65.1104 15.016 65.1984 15.168 65.2624 15.36C65.3264 15.536 65.3584 15.72 65.3584 15.912C65.3584 16.552 65.0224 17.096 64.3504 17.544C63.6944 17.992 62.8944 18.216 61.9504 18.216ZM80.877 4.248H75.069C75.437 2.216 76.533 1.2 78.357 1.2H90.693C90.357 3.232 89.261 4.248 87.405 4.248H84.405L82.389 15.672C82.245 16.504 81.829 17.136 81.141 17.568C80.469 18 79.557 18.216 78.405 18.216L80.877 4.248ZM91.0217 18.216C90.1257 18.216 89.3097 18.048 88.5737 17.712C87.8537 17.36 87.2857 16.888 86.8697 16.296C86.4697 15.704 86.2697 15.048 86.2697 14.328C86.2697 14.04 86.2857 13.824 86.3177 13.68L86.8697 10.608C87.0297 9.664 87.4057 8.832 87.9977 8.112C88.6057 7.376 89.3577 6.808 90.2537 6.408C91.1657 5.992 92.1577 5.784 93.2297 5.784C94.1257 5.784 94.9097 5.952 95.5817 6.288C96.2697 6.608 96.7977 7.064 97.1657 7.656C97.5497 8.232 97.7417 8.888 97.7417 9.624C97.7417 9.88 97.7177 10.152 97.6697 10.44L97.4297 11.736C97.3497 12.136 97.1417 12.464 96.8057 12.72C96.4857 12.976 96.1017 13.104 95.6537 13.104H89.6057L89.5577 13.44C89.5417 13.536 89.5337 13.68 89.5337 13.872C89.5337 14.432 89.7017 14.864 90.0377 15.168C90.3737 15.472 90.8617 15.624 91.5017 15.624C92.1897 15.624 92.7497 15.472 93.1817 15.168C93.6297 14.864 93.8937 14.44 93.9737 13.896C94.3257 13.864 94.5577 13.848 94.6697 13.848C95.8857 13.848 96.4937 14.272 96.4937 15.12C96.4937 15.664 96.2457 16.176 95.7497 16.656C95.2537 17.136 94.5817 17.52 93.7337 17.808C92.9017 18.08 91.9977 18.216 91.0217 18.216ZM94.6217 10.776L94.6937 10.44C94.7417 10.248 94.7657 10.072 94.7657 9.912C94.7657 9.416 94.5897 9.032 94.2377 8.76C93.9017 8.488 93.4057 8.352 92.7497 8.352C92.0777 8.352 91.4937 8.544 90.9977 8.928C90.5177 9.296 90.2137 9.8 90.0857 10.44L90.0137 10.776H94.6217ZM100.218 8.28C100.362 7.464 100.738 6.848 101.346 6.432C101.954 6 102.77 5.784 103.794 5.784L103.554 7.2C103.234 7.52 102.986 7.792 102.81 8.016L102.954 8.112C103.578 7.36 104.298 6.784 105.114 6.384C105.946 5.984 106.802 5.784 107.682 5.784C108.69 5.784 109.514 6.112 110.154 6.768C110.794 7.424 111.114 8.256 111.114 9.264C111.114 9.504 111.09 9.76 111.042 10.032L109.938 16.296C109.81 16.952 109.458 17.44 108.882 17.76C108.306 18.064 107.45 18.216 106.314 18.216L107.658 10.536C107.69 10.312 107.706 10.152 107.706 10.056C107.706 9.592 107.562 9.24 107.274 9C107.002 8.744 106.594 8.616 106.05 8.616C105.298 8.616 104.626 8.864 104.034 9.36C103.458 9.84 103.106 10.464 102.978 11.232L102.09 16.296C101.962 16.968 101.61 17.456 101.034 17.76C100.474 18.064 99.618 18.216 98.466 18.216L100.218 8.28Z" fill="#1E2A2E"/>
</svg>
