<svg width="28" height="31" viewBox="0 0 28 31" fill="none" xmlns="http://www.w3.org/2000/svg">
<path d="M12.6022 31C8.72689 31 5.65029 30.4099 3.37242 29.2298C1.12414 28.0209 0 26.3946 0 24.351C0 21.1848 2.056 19.6017 6.16799 19.6017C6.1384 19.8319 6.12361 20.1773 6.12361 20.6379C6.12361 22.3937 6.71527 23.7321 7.89857 24.6532C9.08188 25.5455 10.7977 25.9916 13.046 25.9916C15.1463 25.9916 16.8178 25.6031 18.0602 24.8259C19.3027 24.02 19.9239 22.955 19.9239 21.6309C19.9239 21.0552 19.7316 20.5659 19.3471 20.163C18.9625 19.7312 18.2969 19.3426 17.3502 18.9972C16.4332 18.623 15.1315 18.2344 13.4453 17.8315C9.92499 16.9968 7.3365 15.9318 5.67987 14.6365C4.05283 13.3124 3.2393 11.6574 3.2393 9.67131C3.2393 7.71402 3.77179 6.00139 4.83677 4.53343C5.93133 3.06546 7.48442 1.9429 9.49604 1.16574C11.5372 0.38858 13.9334 0 16.6846 0C18.8737 0 20.8262 0.259052 22.542 0.777158C24.2578 1.29526 25.589 2.02925 26.5357 2.97911C27.5119 3.90019 28 4.95079 28 6.13092C28 8.95172 26.018 10.4341 22.0539 10.578C22.0835 10.3477 22.0983 10.0023 22.0983 9.54178C22.0983 7.95868 21.6249 6.80734 20.6783 6.08775C19.7612 5.36815 18.2821 5.00836 16.2409 5.00836C14.1997 5.00836 12.6022 5.36815 11.4485 6.08775C10.2948 6.77855 9.71791 7.7572 9.71791 9.02368C9.71791 9.8584 10.1469 10.5492 11.0048 11.0961C11.8627 11.6142 13.401 12.1179 15.6197 12.6072C19.3175 13.442 22.0391 14.5357 23.7845 15.8886C25.5298 17.2414 26.4025 18.9396 26.4025 20.9833C26.4025 23.0269 25.8405 24.8115 24.7163 26.337C23.6218 27.8338 22.0243 28.9851 19.9239 29.7911C17.8531 30.597 15.4126 31 12.6022 31Z" fill="#1E2A2E"/>
</svg>
